<?xml version="1.0" encoding="UTF-8"?>
<svg id="_레이어_1" data-name="레이어 1" xmlns="http://www.w3.org/2000/svg" viewBox="0 0 206.8676 64.5806">
  <defs>
    <style>
      .cls-1 {
        fill: #9dd8f4;
      }

      .cls-2 {
        fill: #7d95cc;
      }
    </style>
  </defs>
  <polygon class="cls-1" points="62.2483 32.2903 49.767 53.9086 24.8043 53.9086 12.323 32.2903 24.8043 10.672 49.7669 10.672 55.9284 0 18.6428 0 0 32.2903 18.6428 64.5806 55.9285 64.5806 74.5713 32.2903 62.2483 32.2903"/>
  <polygon class="cls-1" points="51.7683 42.9624 68.4098 42.9624 74.5713 32.2903 45.6068 32.2903 51.7683 42.9624"/>
  <polygon class="cls-2" points="48.3475 12.0624 41.9285 12.0624 37.2856 20.0242 32.6428 12.0624 26.2238 12.0624 15.1619 31.0319 22.1138 31.0319 29.6997 18.0231 34.1934 25.7292 40.3778 25.7292 44.8716 18.0231 52.4575 31.0319 59.4093 31.0319 48.3475 12.0624"/>
  <circle class="cls-2" cx="28.9716" cy="27.3326" r="2.8161"/>
  <path class="cls-2" d="M40.1017,32.0247c0,1.5553-1.2608,2.8161-2.8161,2.8161s-2.8161-1.2608-2.8161-2.8161h5.6321Z"/>
  <circle class="cls-2" cx="45.5997" cy="27.3326" r="2.8161"/>
  <g>
    <path class="cls-2" d="M86.6391,2.5016l6.2048,17.3019,6.2048-17.3019h6.5628v26.7284h-6.2048v-11.5743l-4.3553,11.5743h-4.415l-4.3553-11.5743v11.5743h-6.2048V2.5016h6.5628Z"/>
    <path class="cls-2" d="M116.0976,9.482v12.7079c0,1.1542.1882,1.9491.5668,2.3865.3777.4382.9042.6563,1.581.6563.7953,0,1.6109-.4773,2.4461-1.4319s1.2529-2.0882,1.2529-3.4007v-10.9181h6.2048v20.0463h-6.2048v-2.1478c-.7159.755-1.6016,1.3024-2.6549,1.6407-1.0542.3374-2.0983.5071-3.1322.5071-1.8298,0-3.3318-.6264-4.5044-1.8793-1.1735-1.2529-1.76-3.052-1.76-5.3994v-12.7676h6.2048Z"/>
    <path class="cls-2" d="M139.9479,2.5016v26.7284h-6.2048V6.7972h-2.0882V2.5016h8.293Z"/>
    <path class="cls-2" d="M153.7151,3.8142v5.6678h4.9519v4.2956h-4.9519v8.1736c0,1.0348.3675,1.7898,1.1037,2.2671.7356.4773,2.0184.7159,3.8482.7159v4.2956c-4.5743.0391-7.577-.4084-9.0089-1.3424-1.4316-.934-2.1475-2.615-2.1475-5.0414v-9.0686h-3.9377v-4.2956h3.9377V3.8142h6.2045Z"/>
    <path class="cls-2" d="M167.7809,1.9647v5.7275h-6.2048V1.9647h6.2048ZM167.7809,9.482v19.748h-6.2048V9.482h6.2048Z"/>
  </g>
  <g>
    <path class="cls-1" d="M130.5128,34.5575c1.8289,1.5121,2.8834,3.5003,3.1621,5.9662h-6.2048c-.1193-1.1533-.5966-2.0974-1.4319-2.8339-.8353-.7356-1.9894-1.1037-3.4604-1.1037-1.5912,0-2.9738.8269-4.1465,2.4795-1.1735,1.6538-1.76,3.9911-1.76,7.0114,0,3.2253.5966,5.5521,1.7898,6.9801,1.1932,1.4289,2.6448,2.143,4.3553,2.143,1.6306,0,2.8133-.6014,3.5499-1.8036.7356-1.2025,1.1234-2.5496,1.1634-4.043h-4.8326v-4.2956h11.634v14.4378h-6.2048v-2.6251c-.4716.7953-1.3152,1.4319-2.532,1.9092-1.2165.4773-2.609.7159-4.179.7159-2.9831,0-5.553-1.1437-7.7113-3.4305-2.1589-2.2868-3.2375-5.6171-3.2375-9.993,0-4.2557,1.1234-7.6161,3.3709-10.0828,2.2466-2.4658,5.1208-3.699,8.6211-3.699,3.5397,0,6.2245.7559,8.0543,2.2671Z"/>
    <path class="cls-1" d="M137.7772,45.4755c.1584-1.9482.9844-3.4801,2.476-4.5939,1.4915-1.113,3.6292-1.6705,6.4136-1.6705,2.7447,0,4.7523.5071,6.0261,1.5214,1.2726,1.0142,1.9092,2.4563,1.9092,4.3255v7.7557c0,.8752.1289,1.442.3878,1.7004.2583.2595.7458.4087,1.4617.4475v4.2956c-2.1544.0394-3.6925-.0698-4.6136-.3281-.9212-.2589-1.6025-.7661-2.0422-1.5214-.4415.676-1.1723,1.2129-2.1941,1.6109-1.0217.3973-2.2325.5966-3.6337.5966-1.8829,0-3.4446-.5173-4.6861-1.5512-1.2419-1.0339-1.8626-2.3465-1.8626-3.9377,0-1.7895.5426-3.3008,1.6285-4.534,1.0852-1.2323,2.754-2.1078,5.0062-2.6251,1.7293-.397,2.8849-.7655,3.4687-1.1037.5826-.3374.8746-.7058.8746-1.1037,0-.4373-.1891-.755-.5671-.9546-.3786-.1987-.9051-.2983-1.581-.2983-.6769,0-1.2138.179-1.6109.537-.3979.358-.6172.8353-.6563,1.4319h-6.2048ZM144.1609,54.8719c.358.2983.8147.4475,1.3722.4475.7953,0,1.471-.2178,2.0285-.6563.5566-.4373.8356-1.0142.8356-1.7302v-2.9828l-2.6254.8353c-.6769.1996-1.2034.5575-1.581,1.0739-.3786.5173-.5668,1.1136-.5668,1.7895,0,.5173.179.9248.537,1.2231Z"/>
    <path class="cls-1" d="M172.2475,39.9568c.7553.4576,1.2129,1.0841,1.3722,1.8793.5966-.7159,1.4516-1.3218,2.5654-1.8197,1.1133-.497,2.1675-.7458,3.1621-.7458,1.8292,0,3.2116.4576,4.1465,1.3722.9343.9155,1.402,2.1281,1.402,3.6394v14.9748h-6.2048v-13.9008c0-.5566-.1193-.9937-.358-1.3126-.2386-.318-.6169-.4773-1.1336-.4773-.5966,0-1.1139.2891-1.5512.8651-.4379.5769-.6563,1.2231-.6563,1.939v12.8866h-6.2048v-14.2588c0-.397-.1295-.7356-.3878-1.0142-.2589-.2777-.6068-.4176-1.0441-.4176-.5173,0-1.0244.3189-1.5214.9546-.4976.6366-.7458,1.3126-.7458,2.0285v12.7076h-6.2048v-19.9863h6.2048v1.7302c.4373-.5164,1.0835-.934,1.939-1.2529.855-.318,1.6407-.4773,2.3566-.4773,1.1533,0,2.1078.2294,2.8638.6861Z"/>
    <path class="cls-1" d="M204.5399,42.7013c1.7302,2.2877,2.4956,5.1813,2.297,8.6808h-12.8869c-.04,1.1139.2685,2.0282.9248,2.7441s1.4217,1.0739,2.297,1.0739c.8353,0,1.5709-.2178,2.2075-.6563.636-.4373,1.0339-.9146,1.1932-1.4319h6.2048c-.7559,1.7898-1.9295,3.3023-3.52,4.5343-1.5912,1.2326-3.6197,1.8495-6.0855,1.8495-2.9037,0-5.2007-.8949-6.8909-2.6848-1.6908-1.7898-2.5356-4.2151-2.5356-7.2784s.8746-5.5384,2.6251-7.4279c1.7499-1.8886,4.0767-2.8339,6.9804-2.8339,3.0624,0,5.459,1.1437,7.1892,3.4305ZM194.8449,44.5806c-.5966.6769-.8949,1.5121-.8949,2.5058h6.6821c-.04-1.113-.3484-1.9781-.9248-2.5953-.5769-.6163-1.402-.9248-2.476-.9248-.9946,0-1.7898.3383-2.3865,1.0142Z"/>
  </g>
</svg>